<mxfile host="app.diagrams.net" modified="2023-05-11T08:41:07.788Z" agent="Mozilla/5.0 (Windows NT 10.0; Win64; x64; rv:102.0) Gecko/20100101 Firefox/102.0" etag="kgYBLZunLzBK9QmCgUDN" version="21.2.9" type="github">
  <diagram id="C5RBs43oDa-KdzZeNtuy" name="Page-1">
    <mxGraphModel dx="1050" dy="1707" grid="1" gridSize="10" guides="1" tooltips="1" connect="1" arrows="1" fold="1" page="1" pageScale="1" pageWidth="827" pageHeight="1169" math="0" shadow="0">
      <root>
        <mxCell id="WIyWlLk6GJQsqaUBKTNV-0" />
        <mxCell id="WIyWlLk6GJQsqaUBKTNV-1" parent="WIyWlLk6GJQsqaUBKTNV-0" />
        <mxCell id="zkfFHV4jXpPFQw0GAbJ--0" value="PageObject" style="swimlane;fontStyle=0;align=center;verticalAlign=top;childLayout=stackLayout;horizontal=1;startSize=26;horizontalStack=0;resizeParent=1;resizeLast=0;collapsible=1;marginBottom=0;rounded=0;shadow=0;strokeWidth=1;" parent="WIyWlLk6GJQsqaUBKTNV-1" vertex="1">
          <mxGeometry x="220" y="120" width="190" height="190" as="geometry">
            <mxRectangle x="230" y="140" width="160" height="26" as="alternateBounds" />
          </mxGeometry>
        </mxCell>
        <mxCell id="zkfFHV4jXpPFQw0GAbJ--1" value="- driver: WebDriver" style="text;align=left;verticalAlign=top;spacingLeft=4;spacingRight=4;overflow=hidden;rotatable=0;points=[[0,0.5],[1,0.5]];portConstraint=eastwest;" parent="zkfFHV4jXpPFQw0GAbJ--0" vertex="1">
          <mxGeometry y="26" width="190" height="26" as="geometry" />
        </mxCell>
        <mxCell id="zkfFHV4jXpPFQw0GAbJ--4" value="" style="line;html=1;strokeWidth=1;align=left;verticalAlign=middle;spacingTop=-1;spacingLeft=3;spacingRight=3;rotatable=0;labelPosition=right;points=[];portConstraint=eastwest;" parent="zkfFHV4jXpPFQw0GAbJ--0" vertex="1">
          <mxGeometry y="52" width="190" height="8" as="geometry" />
        </mxCell>
        <mxCell id="zkfFHV4jXpPFQw0GAbJ--5" value="PageObject( WebDriver: driver)&#xa;(Pagefactory init)&#xa;" style="text;align=left;verticalAlign=top;spacingLeft=4;spacingRight=4;overflow=hidden;rotatable=0;points=[[0,0.5],[1,0.5]];portConstraint=eastwest;" parent="zkfFHV4jXpPFQw0GAbJ--0" vertex="1">
          <mxGeometry y="60" width="190" height="50" as="geometry" />
        </mxCell>
        <mxCell id="vVSnk-1epBv8H9hLlx9P-19" value="@ FindBy&#xa;" style="text;align=left;verticalAlign=top;spacingLeft=4;spacingRight=4;overflow=hidden;rotatable=0;points=[[0,0.5],[1,0.5]];portConstraint=eastwest;" parent="zkfFHV4jXpPFQw0GAbJ--0" vertex="1">
          <mxGeometry y="110" width="190" height="20" as="geometry" />
        </mxCell>
        <mxCell id="vVSnk-1epBv8H9hLlx9P-20" value="+ actionMethods(String testdata)" style="text;align=left;verticalAlign=top;spacingLeft=4;spacingRight=4;overflow=hidden;rotatable=0;points=[[0,0.5],[1,0.5]];portConstraint=eastwest;" parent="zkfFHV4jXpPFQw0GAbJ--0" vertex="1">
          <mxGeometry y="130" width="190" height="30" as="geometry" />
        </mxCell>
        <mxCell id="vVSnk-1epBv8H9hLlx9P-22" value="+ actionMethods() return new Page" style="text;align=left;verticalAlign=top;spacingLeft=4;spacingRight=4;overflow=hidden;rotatable=0;points=[[0,0.5],[1,0.5]];portConstraint=eastwest;" parent="zkfFHV4jXpPFQw0GAbJ--0" vertex="1">
          <mxGeometry y="160" width="190" height="30" as="geometry" />
        </mxCell>
        <mxCell id="zkfFHV4jXpPFQw0GAbJ--17" value="AbstractComponent" style="swimlane;fontStyle=0;align=center;verticalAlign=top;childLayout=stackLayout;horizontal=1;startSize=26;horizontalStack=0;resizeParent=1;resizeLast=0;collapsible=1;marginBottom=0;rounded=0;shadow=0;strokeWidth=1;" parent="WIyWlLk6GJQsqaUBKTNV-1" vertex="1">
          <mxGeometry x="350" y="-150" width="272" height="242" as="geometry">
            <mxRectangle x="550" y="140" width="160" height="26" as="alternateBounds" />
          </mxGeometry>
        </mxCell>
        <mxCell id="zkfFHV4jXpPFQw0GAbJ--20" value="- driver: WebDriver&#xa;" style="text;align=left;verticalAlign=top;spacingLeft=4;spacingRight=4;overflow=hidden;rotatable=0;points=[[0,0.5],[1,0.5]];portConstraint=eastwest;rounded=0;shadow=0;html=0;" parent="zkfFHV4jXpPFQw0GAbJ--17" vertex="1">
          <mxGeometry y="26" width="272" height="26" as="geometry" />
        </mxCell>
        <mxCell id="vVSnk-1epBv8H9hLlx9P-13" value="- wait: WebDriver&#xa;" style="text;align=left;verticalAlign=top;spacingLeft=4;spacingRight=4;overflow=hidden;rotatable=0;points=[[0,0.5],[1,0.5]];portConstraint=eastwest;rounded=0;shadow=0;html=0;" parent="zkfFHV4jXpPFQw0GAbJ--17" vertex="1">
          <mxGeometry y="52" width="272" height="26" as="geometry" />
        </mxCell>
        <mxCell id="zkfFHV4jXpPFQw0GAbJ--23" value="" style="line;html=1;strokeWidth=1;align=left;verticalAlign=middle;spacingTop=-1;spacingLeft=3;spacingRight=3;rotatable=0;labelPosition=right;points=[];portConstraint=eastwest;" parent="zkfFHV4jXpPFQw0GAbJ--17" vertex="1">
          <mxGeometry y="78" width="272" height="8" as="geometry" />
        </mxCell>
        <mxCell id="zkfFHV4jXpPFQw0GAbJ--24" value="+ AbstractComponent(WebDriver: driver)" style="text;align=left;verticalAlign=top;spacingLeft=4;spacingRight=4;overflow=hidden;rotatable=0;points=[[0,0.5],[1,0.5]];portConstraint=eastwest;" parent="zkfFHV4jXpPFQw0GAbJ--17" vertex="1">
          <mxGeometry y="86" width="272" height="26" as="geometry" />
        </mxCell>
        <mxCell id="vVSnk-1epBv8H9hLlx9P-14" value="+ waitForElementToAppear(By byLocator)" style="text;align=left;verticalAlign=top;spacingLeft=4;spacingRight=4;overflow=hidden;rotatable=0;points=[[0,0.5],[1,0.5]];portConstraint=eastwest;" parent="zkfFHV4jXpPFQw0GAbJ--17" vertex="1">
          <mxGeometry y="112" width="272" height="26" as="geometry" />
        </mxCell>
        <mxCell id="vVSnk-1epBv8H9hLlx9P-44" value="+ waitForWebElementToAppear(WebElement)" style="text;align=left;verticalAlign=top;spacingLeft=4;spacingRight=4;overflow=hidden;rotatable=0;points=[[0,0.5],[1,0.5]];portConstraint=eastwest;" parent="zkfFHV4jXpPFQw0GAbJ--17" vertex="1">
          <mxGeometry y="138" width="272" height="26" as="geometry" />
        </mxCell>
        <mxCell id="vVSnk-1epBv8H9hLlx9P-9" value="+ switchIFrame&#xa;" style="text;align=left;verticalAlign=top;spacingLeft=4;spacingRight=4;overflow=hidden;rotatable=0;points=[[0,0.5],[1,0.5]];portConstraint=eastwest;" parent="zkfFHV4jXpPFQw0GAbJ--17" vertex="1">
          <mxGeometry y="164" width="272" height="26" as="geometry" />
        </mxCell>
        <mxCell id="vVSnk-1epBv8H9hLlx9P-8" value="+ handleAlert" style="text;align=left;verticalAlign=top;spacingLeft=4;spacingRight=4;overflow=hidden;rotatable=0;points=[[0,0.5],[1,0.5]];portConstraint=eastwest;" parent="zkfFHV4jXpPFQw0GAbJ--17" vertex="1">
          <mxGeometry y="190" width="272" height="26" as="geometry" />
        </mxCell>
        <mxCell id="zkfFHV4jXpPFQw0GAbJ--25" value="+ switchWindows" style="text;align=left;verticalAlign=top;spacingLeft=4;spacingRight=4;overflow=hidden;rotatable=0;points=[[0,0.5],[1,0.5]];portConstraint=eastwest;" parent="zkfFHV4jXpPFQw0GAbJ--17" vertex="1">
          <mxGeometry y="216" width="272" height="26" as="geometry" />
        </mxCell>
        <mxCell id="vVSnk-1epBv8H9hLlx9P-16" value="Extends" style="endArrow=block;endSize=16;endFill=0;html=1;rounded=0;exitX=0.5;exitY=0;exitDx=0;exitDy=0;entryX=0.485;entryY=1.077;entryDx=0;entryDy=0;entryPerimeter=0;" parent="WIyWlLk6GJQsqaUBKTNV-1" source="zkfFHV4jXpPFQw0GAbJ--0" target="zkfFHV4jXpPFQw0GAbJ--25" edge="1">
          <mxGeometry width="160" relative="1" as="geometry">
            <mxPoint x="330" y="280" as="sourcePoint" />
            <mxPoint x="250" y="80" as="targetPoint" />
          </mxGeometry>
        </mxCell>
        <mxCell id="vVSnk-1epBv8H9hLlx9P-23" value="BaseTest" style="swimlane;fontStyle=0;align=center;verticalAlign=top;childLayout=stackLayout;horizontal=1;startSize=26;horizontalStack=0;resizeParent=1;resizeLast=0;collapsible=1;marginBottom=0;rounded=0;shadow=0;strokeWidth=1;" parent="WIyWlLk6GJQsqaUBKTNV-1" vertex="1">
          <mxGeometry x="840" y="-150" width="272" height="299" as="geometry">
            <mxRectangle x="550" y="140" width="160" height="26" as="alternateBounds" />
          </mxGeometry>
        </mxCell>
        <mxCell id="vVSnk-1epBv8H9hLlx9P-25" value="-iSALandingPage: LandingPage  " style="text;align=left;verticalAlign=top;spacingLeft=4;spacingRight=4;overflow=hidden;rotatable=0;points=[[0,0.5],[1,0.5]];portConstraint=eastwest;rounded=0;shadow=0;html=0;" parent="vVSnk-1epBv8H9hLlx9P-23" vertex="1">
          <mxGeometry y="26" width="272" height="26" as="geometry" />
        </mxCell>
        <mxCell id="vVSnk-1epBv8H9hLlx9P-43" value="-driver: WebDriver  " style="text;align=left;verticalAlign=top;spacingLeft=4;spacingRight=4;overflow=hidden;rotatable=0;points=[[0,0.5],[1,0.5]];portConstraint=eastwest;rounded=0;shadow=0;html=0;" parent="vVSnk-1epBv8H9hLlx9P-23" vertex="1">
          <mxGeometry y="52" width="272" height="26" as="geometry" />
        </mxCell>
        <mxCell id="vVSnk-1epBv8H9hLlx9P-26" value="" style="line;html=1;strokeWidth=1;align=left;verticalAlign=middle;spacingTop=-1;spacingLeft=3;spacingRight=3;rotatable=0;labelPosition=right;points=[];portConstraint=eastwest;" parent="vVSnk-1epBv8H9hLlx9P-23" vertex="1">
          <mxGeometry y="78" width="272" height="8" as="geometry" />
        </mxCell>
        <mxCell id="vVSnk-1epBv8H9hLlx9P-27" value="+ BaseTest()" style="text;align=left;verticalAlign=top;spacingLeft=4;spacingRight=4;overflow=hidden;rotatable=0;points=[[0,0.5],[1,0.5]];portConstraint=eastwest;" parent="vVSnk-1epBv8H9hLlx9P-23" vertex="1">
          <mxGeometry y="86" width="272" height="26" as="geometry" />
        </mxCell>
        <mxCell id="vVSnk-1epBv8H9hLlx9P-28" value="+ initDriver(By byLocator)" style="text;align=left;verticalAlign=top;spacingLeft=4;spacingRight=4;overflow=hidden;rotatable=0;points=[[0,0.5],[1,0.5]];portConstraint=eastwest;" parent="vVSnk-1epBv8H9hLlx9P-23" vertex="1">
          <mxGeometry y="112" width="272" height="26" as="geometry" />
        </mxCell>
        <mxCell id="vVSnk-1epBv8H9hLlx9P-42" value="" style="shape=image;verticalLabelPosition=bottom;labelBackgroundColor=default;verticalAlign=top;aspect=fixed;imageAspect=0;image=data:image/png,iVBORw0KGgoAAAANSUhEUgAAAZIAAABtCAYAAACLMeeCAAAgAElEQVR4Xuy9B3heR5n3fatLlmRLsixb7r337thxXEKKHVJISAjwQSAFQtndd3ffva4Fdvfjg2VZ2rILCwkEEtJwSOL04sQtie047r33Ismy1Xv//r95NPIjWbbkxMZ2ck4Qsp7nnDkz98zc/7tPRIMuC66AAgEFAgoEFAgo8CEpEBEAyYekXPBYQIGAAgEFAgo4CgRAEiyEgAIBBQIKBBT4SBQIgOQjkS94OKBAQIGAAgEFzhNI6ltQLPKvSsH2vN3fg+Mn4iL0Nrx9p9I1vuOvS4m/KtmDl11SCvgV53/7lRasuEs6LcHLm1HgggCJ99dHRLRk3eemdrifvz3PfhggabDTsQSRYWEFLfvc3jHUNw6xTjEKkRqvH3FU47/aaqe12Ib2jN1Tsq32P8z6Pp8227q35fj82M72+cUcVzgt2up3S7qd79r8MHRv3zNtA8n5jq21916INto3not/1+Uzdxd/rJfLGy4JkLQ3UKympsbRKTIy0qKjo629QAJ41NTVWkVZudXV1jbROqIdQMLN9fX1Rh+joqLcszDDpj5HhqCjQb8TExMtLibW/X0hgeRcm/pcDPlsG6itjXU+TKS9bXmiX65AUtu4Llhbvo+sN/72895yDJdm0wZA0lLY8HvybPPxUYW1SzPPV/ZbLziQNGc0DVZXXWflpWVWXlJu6enpFhUXbQ3ixZXVFVZeVGFlxSUWJZDonJJqsR3jtZGjHNOur6uzo9v3mcVEWOduGZacngKktEntesFNfUO9Vaj93Oxsq6qs0d8gSKSFayStNRSpZ6vKq63oVJ5VllVZRu9Mi02I16MRVidwiq6NMJhNUVGRde7c2br1yrSUlBTHfMKvyspKd09paanFx8dbly5dLCYmpolhtTWIthj72YCYvuXm5ro+8V7A14Gexs9PSUmJ+813/JzP5dvIz8+34uJi1zbjoh0PtOXl5VZRUWGxsbGWlJR0Bl3a8z5AHCbPb9rxtOX9jC8vL8+Sk5Obja897Xqa8btOa+vYsWNuTphHxsDnBw8etLi4OEtNTXVCQluMqqGy2mrVT4AnKjbGtVGgtcOV1KGDxSafvY329Dl0z2kg4V9axaGPGxp/N6rEfKfN3NQscwINmQ/WIf/mSkhIsA7qG3T13zGXfM7YoT3z696sZ6ARtAhfL+ejQbc1zvC17OedvvFef3EPa4txdOrUqdm6aG/7F7LPbb3zk/h9u4DETzZmHZix+5uFWR8yHEUiuSOp87eYuAeDCP27vLDU9u3cY7u27rRrrp1jGQKFiPgYyz2ZY/vW7bbt27dbtBbN3DlzLHNYL4vRYhaKWJm0iYW/fUrgkmBjr5pkQ8YMtzrtHd7PgnP90DvZxM0XiYBEfSuvKLVDBw9ZWXmFNahfDoTc7+YXoOaeV1uRdWIEOXm2fdMWy8/Ktenz5lpalzSLiIoUkNRZdFm9nczNs7Xr1tnkSVNs7PQJ1rW7xqM+NEjd8Zv8xIkTtnnzZtuxY4djVPPmzXPMyTNcGBmX73tL4AjfXJ4B8BnPs8n48QyR7/34CwoK7LXXXrOpU6dajx49HMPw0jXgtk79hna9e/e2/v37hwC7kcH4d/r7vVZGP/17YeS0wdhgOtdee6316tXL9Yf7Yc6HDh1yAsPAgQPdhvcA1NqY/We0z3s9wygsLHRMrnv37u49fMe9MLgVK1bY0KFDm8bn6eD76fvv2w6nrW+H9l9//XVLS0uzKVOmuP5Cl4ULFzoGNmrUKNf/1piPHw+0KDyc6wSWjgLutC6p1lBXb4sXLXbPDRmoPg7u5dYGa8vtHa0v9kdoPYb2TYjhS0zRZxG6LyLitFDSEMFeCv0dmidpT27/hfaeG3Nj+w2YWVsASVVVlWVlZdnWrVuNMTM25p0f/r1z5073PUDSt29fR29ozBx7zQwa9enTx82zX7OtaaXQ238eLsCEz7vfef4z354fH0JCWVmZAzWEFK8tQmvWFv2dOHGimzfeEf7O8L0UvnZb8ocAUC4OzLULSE6/Wky6tt6qyyqsRpJ+pCT0iuoq69ixo8XEx0n7qLHqmkrrIGm0srzUorTeS/KLbOXylfbGS6/ZA1//mvUa0MdSM9KttKrc9m3cbYveftstkK9940GbMGeyxUv6qauutlOnTtmet9ZZdEqC9R81yLoO6qMdJBNTTa3bFDVV1RaTGGvJend0XGyT3IZW4SSxshJtoB2unzFR0gbqIqy6ssoxJaSrar0DZlVntdYhWdJjQqzVVtVa0YkCyz541KpLKm3wlDFOAnIMrqLcqvOL7eiR4/bss8/anXfebXNvuc569NcGixYzELJ5IEFy2r17t61atcqByT//8z9bz5493cJHK6D/XIAMzJ7P2fT0y0uKTsrVDxuL9/Obe6E1DJpnaIf2YAp8B82+//3v2+23325Dhgxxm5H+087x48ftxz/+sZPoAbbPf/7z7l0wDt5Ne7QL4HHRLuADLb2Uzue0A1ixsXnPuHHjXDvcv3//fvc5TGfYsGGuPRg00iTvgSEwZj6nbf8Z70TL4N59+/bZ6tWrHYP7zGc+40APxsKz2dIw33//fRs/frxjfIzZMXTRAfrQBj+Ml7nlHfzwN5+jJXH/u+++a2vWrHHtzJ492/WHi88/+OADByKf/vSnLSpMKvZ7AGYNrU7mnLBFT75qOadybIxoMOOaGWon2v7rZ79wgHHV1Ok2aspYS+zYwaITNcf10l5KaqyyptrNZ5V+p6RqLqPiXB8rSitcPzsJlGq0Np3gEBdhMRo7V7k03OiGGGnvUfq+xtFOsGId09RGkoSvGISL0z5KGCbtHjhwwN566y176aWXbMSIEfapT33Khg8f7mj58MMP25gxY+zo0aOWmZlpo0ePdnPwu9/9zqZNm+YAtmvXrg64Wb+sBWjOb/YP74CmrB80cN7HGmY+WZPsA/rJ/dCftevnhd+MEW0HDZr7li5d6voLcM2YMcO1A2DQDmuLtTFz5syQZaNxb/Ac88G9vJv+0zbzzJpg/fNur+EEQHKZAEn5qWJb/c5KW79yjcU1JFhxaYkNGjTIRo4ZZcWFBbZ371674YYbbO2atdJW6qxbRqblHDlmTz7+lI0fM9ZqoxtswNCBNm7qROvesZstXb7EXnjlZbvv6/fZpLlXWawk0Kys4/bqq6/ZiVV7rN+oITbjupnWd8xQKy8osjdfW2QH9+5zTL/XoN429ZqrrP+IYVYn6U3yulP8kQwxMTz75AIrPlVkg/oOtIaqOtu1d49jcjDYrdu22smsHKfidErvbNNmTLVybYRdm3fY4b0HrXNiis24/TrrnJpmR/YftO1btlr+kVzHCHbs2mlf/spX7FN33GCZAwVwURqp2olqNDuwmGGEK1eutOXLl9t3v/tdtxFhwps2bXIg4zcl2gMXgDNhwgS3Id577z3XR5ju4sWLm8CETQHzgyHs2bPHMT42Bp8zBxkZGfad73zHSZxseP4eO3ask7rpx6JFi1y/kOoAEjbeH/7wB8cAAAOYAtI4zz/33HPuvTBZgGT69OmuLfr96quvOvC/6aab3Gc8y9/0GyCZO3euY0Rs9i1btjgJF5MY7dA+2hL92LZtW5MWAoODqUAfGAqgCJO/+uqrHWjAqBgDQHL33Xc7OtAXpO0lS5a48UILgI3+0zb0R3qFqQBs1113nevT73//e8eg/Ji81H/48GF76qmnHGO76667LFX0b3nVA4wy1b7y4ku29rl3La/wlPXo29smTJpgM+bMtMceesSyjhy1lPiOlpaZbn2HDrAbbv20ZeefsA1L19rOXdvVV5m8tF5nf2quM/nu37XHTkgDBiQmTZzkxgGjTu+ZIUY/1tHolVdesUSBSn1Ngx0+fEh7TQJEh1ibNGOKDR073FK6qa+N/jvfZ+gDE2at/OhHP3ICxDXXXOPmCzpC529961uOSXMP88P+eOSRR9y9zBNriN8IA8wvwANwMx/8G6BHsACY6CfAw3qDvsuWLXPzyHiY2xtvvNFycnKcVsnzMHjuu+WWW9znb775puMfaEa0AWgAPn6ts38efPBBt5eOHDlia9eubeo397GG0MpZb1gFGA8AguY8cuTI8zIvXxx2+/FttZlG0tKZHR5C6xRsfVCSdcpeWfCirVm6wsYOGi+ndp2zy48eO8YqpWXs2LrN7r33XjH8N5zKPkzST7nMVE//+WmbN+d6O1mcb2X15TZ+2kSbO+0aW/HBSntiwdN279fvt/EOSOKtRAt1/dp1tvyR161rv0y7VpL/oLFD7cCOvfbQrx+yAb37WJ9e/SxtYFfrPbifdRvYQ5AFkDTakOVfL5YmtPDxZ2zT6nXWv9dAi9IG3LN/n82aNcv1F8knNS7RouKj7Uj2cZt41WTr3bePZR+RKWD9RquRr+S6r95mGR3TbeXS5XZ4z0FLaoh3m/fd91fal+79ss2643rLHNRXGkmD1UbKVu7t1uoHGwONBCDwGgkbYcOGDY65sjFhuoAuDHz9+vV2/fXXW7du3ZzGw4Zmw/BvGCPAwoZn406ePNkxFjYKmgfM0mtOvIsNyN8wbzbrHXfc4ZgDDJWNzXcw+8GDB9u//du/OQmczcv9bHA2/GOPPebeTz/YlEh9X/3qVx2ThXEwBpiNBxLugUEABIAjIICkigkJSRKQ5FmkSTQMPtu4caMDK0xlaB+AAxoTDA5a3XnnnU56BlyRMnnno48+ap/73OfcO5hHQOTkyZM2adIkR1voxHhgSPzNOPk3dLj11lsdrdDMBgwY4OgEAHsplfEjjcPcAKtMMdAzkUQ+nIoqrc+19t7vXrdsaSTDJUTNmH21W4u//eX/WkH2KSeIYHotrS63v/nnv7fjum/Js2/aoaOHHDNPlc8vpUu6rX1vtRXlnrLeXXtaYbEYtBg/dK8U7WpkFQNEAXNoO2jAYGnYVbZl4yZp2VHWq38/m3LtNBs0bqglZnaUVhwKDvEXe5Y5R+P4l3/5F7vtttscMDPHrEvMyt/73vecbwiQZk1Cb9YKoMuaQFOBngDwCy+84GjOxbrzbbFG6We/fv0c42cNo1UCJDxH/5k/1gtCC9og64C1xdwjdPAswL9r1y633lk/fIaww15CaOL7b3/7224PMO8IX7TjBa6bb77ZASfCBXsD8EAbY19Bc/oWXBeHAucNJMXHTtrCJ5+1TSvW2E2zb7ZIbTok3eEjR6iH9bZNmx0geeO1153dFwmxprbGMcSv33O/Hc/LsY07NtkgaRq3zr/F1m5Ya48/+YTdc+89Nunaqy2+Y7JWf62dEnP447/8r3VI7WBz5KsYNGqwbVq70f7nv/7HPnv7HTZj2gyLy5REI/NWXLrMYWFA0iAXRFlxma1a9I699OeFltAQbR0sxopkxrr91tu0KN+xvJN5NnrgEGcWWKpFOkw+mKtmTLcqmbRWv7fCsg4ft5vuud26pKbb6y++bIWnCm1Qt36WIJ/Nsy++YF+454t2jTSWswGJN8NAGzQSNiRSO4DBpuJ6W2Y9pCU2AgzYA8nTTz/tNhMbic3L52wemDIbBKYJo58jvxIbBOaIFgQwoZHcc889TjKkTfqBCeonP/mJkyxh7ki7SOiYb/71X//VSXJoOWximPgXv/hFW7BggdvgaBBsdkw+jAMJlX7wGf0CILy9GgkRhgRA8R3SIfOO+eGBBx5w40RKxo+CxgBYIKkyRvoAgDE+2oD5f+Mb33BMCWbktbwf/vCHToJFYkUYoC/QFibCu2CcmEZgeNDjK9IcYWiY3mBkMGloARMDSDDbeCABZNFW6ANg1U2MtOWFaatBoFpaVGyv/ORpO5x1xCZNn2af+vQ8a5At9+c/+onVVdZa/+59rLqi0t7fuMa+88N/s5yCXFv6wttWWl5i93/za9atR1c7cuyo/eWxpy262uyGmXPtoP5evGyp/G+TLL+o0PbvO2gJSYoMVH9O5ec55p6U0MG2iFHSdnRMtI2+aqyNunqCZQzodgaQ0FcPJMyzBxJowdpjffA5oA5QsS6gxxNPPOHGD41YW6wbGDpaKtoogg/aKMwesEaomT9/vl111VVO6kc4AIyYQ+YCcOcz1hhrAgDDjMY6Ye6ZY+YPwQJwAKRYm8yLN9EBTMwvGgn9Yn0yx+wB5hSTLmuO9c28A34A3X/8x384zROBAtAJrotDgXYBCS51nNs4+ooagWT98vdt9uS5LgJrs8BjzLix8oLXOIbDgl+5YqXsw8nOjFIjcxCL8O5bPmtZUvEP5xy2YeNH2U3XzbOtO7baw9q8s6+dZRNnTNLm7emc2/vlKH/ll09ZlIBi2sypUt9H2Kljp+y3v/2NWxhIG0l9OzuVPrVH52ZAArOqLKu0PRt22rN//LMd233YOkUmWtfRfeymefNt2duL7bjMD70kBcYkxNiGrZtt3ISxNnDYUCvLKxJgrbfco9l21U2zrHeP3gKW9+3UiTzL7KQopeR4W7T0Lbv7S5+3WbffYN3k82lNI0FKRvJiowCsgAIaClIVoMCiZlPCzGDObEikQTYd4MP4kJq5h03FZuPfSHcACfRkIyLF0xYbGIb9gx/8wDFP2gG0YBJsKExYSN+OKYlh0s7999/vTB5I93yH5Momh+E8/vjjrg8ADpoQZp+//du/de9CGgQ0ABn6ArNBmmWzYzJhrGxwrjfeeMNpNDAKNAu0EW/uAlDRaABO6IB2BrBgQqF9AA0a8Az30o///u//dqADkDAOJFWADKaGlM34AGEAFO2GNt55R4KD/s26pG9/+tOfXHswPvrvgQRaQVfGiDaULM2tpYTP387Hgbb1ywXOzDlg6BC79vrrrFNakv3ql7+SyCKndp/+VlNabktXvWP//P9+z04UnbQVry63mog6+/bff8tiunSyE6L3s398yspzS2zysDHSbk6qvV0SLubavoMHbNP7G13UIAw+Vj7I2794l9ZjDwH+bjskEN2waq0NmzrSrrtzvg2ZMsLqG6P0fJ8xwyGhw5x/8YtfOLpBZ2iE+QcAAOAZN6ZGNEYEkL/85S923333OTr6CD80ieeff96BA/Rm3hBieI41jpYMOGBi5Ht8MpifvEDE+gQAAC/2AfMKs0doALyYGzQJvmc9AQrMg4uEE/jwDGvpC1/4gnuWNci7AScECYALQYR5Ye7ZS/AegIS1wnpEkPFX4Cu5sIByfkAi21exTFtoJIsWvmrpqV2tVhEkw8SAr9FEVUhlfvnll91kVmjhDRwywKZOucpthGeeeVbqfkcrriyx/vp87g3X2qgJk2QbPma//c1vrLC00PoN7GejZBPGWb9QNuiy3dnaHGZde3azMRPH2vSpV2sxL3QLH7NZn1FSgdXOmMnjHJCEFPtQBFF5eaVl7zlqS16X5KUNlxSdYOPmTrWxo8bYQTGkle++Jx9JrswPDWIYHe3Gm260I9rY+3btlTYiZ7uc9B17pNmYkWMtpiHK9u89ICDLsWiZtgrU19s/d4fNnD/HuvfrLR+JwoNl2opsNG2xSJHA0ECQcGHqbGCYLYCBRMhmY6MhycHcAB02PGYnTA8wRjYaGgJaC5uKf8MEcESy6ZAqkQ75DimO+x966CH77Gc/65g2Uj9tIhV65zWgBbOHuWLq+elPf9rkCPU+EjYnUjuXD12mPzAO7qFdGAAaAUAGQ8Y8glQLs4ch8Tn95G+YAPTgWT4HxOgX80j7SKLQAUbHswAgvgrGwzvpP+YNxg+dMKOg6QLImKNYc7QDOKBF0X/ax5bPGAE4/u39LWhTmDwASt7pw3/RbvBf8Tw099FH4VvOR22xxta9/K4tWb7MmdYGD5OG/Zlb7cWFL8qBHmN9evaxKgHJ6g0f2Df/7m/tVNEpW718taK36mUW/ZIlpHWyOu2TZa+9bauXrLSCrJPSKCJs2vSrbMbVM2yj+rhtzSbr0jXD8qSN4PifdcMsmbZqHdDiW8nLOWXjZ020mfPmWF/thYaI5qatCtEcLROmDg1g5Jh2YbDQCuGC9YQA4oUC6MmaBQAwByLA8G/WNO+FIQPKCB0wa+YBYOYz6IU5DEGPi3lhrTPv/LCGWA/0B00JTYLfCD4IRQgraI/sG+YGYMCfw3zxbnwlvBNg4HP+BtgwWdE/1j17h7UI2DAm9gOgx7rwgST0LQCSiwgkZ2u6KYRSGgn23xeees42vr9e6u0869VH0nVmV9l8ZbaoqnHSJ0ASLcdhnKQTGCPXiRM5LoqrSgsnOS3FbZDoJOUyVNfaiZxsLbhSRV/FWHJSKMKCdhQS5qKxYhSVlSRmnyGGWSCVP/dEyOmdKLMX5oek1E7uPh846ePnjx44ZLnHc6zwZL7FRkRbYrqigxKTHLAV5hdYmRY5GepsmLQund2GKisulSNftgZCmWOjLFX9j46Wuq57q5RbEqG8lhqBZ6++PSWJDrLOGV1Oh3c2Rhf7GH6AAwYOPZCyGBcLnU3n8y8AAaRwPsfU4yU6pCckce7lHjYpkhkbiO+8Cs9GhRn4CC02OFIlzJrvvMMcHwf38DnvwixAfwASmDsbl40G0HgTD5sR0xUbFSbkw4mRTmE49MfnyfAunqNftAvjgAmxdviccTAvMA/agbHDgDFbMSbGCI0YC33GPMHFWGmLd0IffjMG+sTa4lnuhdbMI/2nffrDmGmX8cKwAClozXcAIW3AbLxpEGcv70I7w5xztvBfv09q8krtZN4p5wMkajFTAs+pEyHncnyMHOMNijDUmkJQILqxRGtOHbaMHpnKOyHBtt7KFAlYKEAo128Rw3r06ilNPknrXFFQReWOHtA0Ss8la43Wau2eEKhWKqw9Su/pond26priNHfF+TXbwpgDGbunj8+bgabQjT3mAYC1AX0AGNaQD/mGltCMefRRd/xG02Hu/HphLnmWOWCt8J2fd/YbdGXuoTtaB2sDQONzBAXGyX3+GebYzwFrxa8tPqf/9Il1wnv92qYvTohVP9g7tM3Y6RNjC89NCYDkEgCJV+cxbZXnl9gHMlsdP3DUhTwikUdrE9WL6UbXarFp8RLnTjw8i99HxPC5ywGRJhEpwEDCilSDLNBaLcxaZaJHy5fBM0wyfpXwKzoq2iJdOGZtKFxV/0VGxli0EsF81juhv1wwLO45cixLYcBlboECMjEChEiZzbhqaxX3rj4BJOSxYE6r12dalS6B0SUvNsb1+/yDOoV1RijUlyshMV7SV0/HjFomJPp+MzbezYamj9zHouczz0D9b2eOa4ye4jPuhw7c7++hHT7jO29e8Z+xwfictsPfFZ5n4nMDeIb72IiYJWCmSIRsTt7F5kT6RxJFOvfhxeHjol8+O9z7SPzfXuKjT34MvI8+h+eF8BmXr1zgQ55pG2ZF32mbz33Iqe+Dv5dnmWtPY97pfSrcG55v4MdPPxgjf/twaj7DJEL/YDz8bu0Kz6FA2GDt1jXm4sRqLdaxhnR5RsV39IkEW8ZAPon7W7+phkCEIWHzdWqHZzBh1Wstsk/w9bl7CAVmPcYIKBrv5znXlnKyIrSfXCSMCwgOXS56sZH5ezp7evj1AY2hHXTw68evz/C8Ir++/dpz49AP97A2/DN+rUI7nvHrjHu90x3tE+YOSKBd8LxfJ44XaG36ihZ+DvgsfG3Rf7fnG/c5z/kEXJ9bQl95Z3i1grPt01YnOvjwvCjQ7jyS0MLSopdqnSeNoFSAgiZQVFJssYkJkujTpU0kaTM0vj889y/8381Weou+npkveOZg/PMyEZyZ6R4CErcgBUxF0i4Ah6aNGLbBm7Sspg6fflUzZhH2DO8jScwxCu3pZJnqWOxXonTjGTNmAKR2H7PvtTmYKhK/l149dcLpFk6ny4UGZ5+75kuptb6f79iarcD2rF23cEL9aFaCkWf983xPbi+ruz1tNt6r1FK3H8K313lxgot8szcJogGhPaIthPssLvLrg+YvMgXOC0h8Zjt9orTJjt27nM0faRbJFdXybAylvRu35fPnYvint+OZVAot3NMJWv4On8nN3+eSUPx9Le9p+XxbUk5rjK0lLc49xjMBLpxGrT17tvbOl1G2BI/2rMW2AOV8x+p4bytgf7a+tBdIzjWWc7VxrnV8rjbPZwxtjS28rfOtRt1eAaqt/p6vENHe+z/K/LV3bbVnHQf3nB8FzgtIfNMsMhzFRH3g7MLJhXkEk8CHAZLwLl9IIPEaS1ubIvz9Z2O2Lcna3jbbszEu9AZoD5CczzJpOYbwddASbNqiS3vH2l7Gcz7jaO+958tsz0afluu6PUVH2wNw5waS0Fu8mfe01t52nbrzofn53NteunNfe/bL+QDt+bw7uPfDU6AFkLRc6qeVdy/do5VQPH3fwf228NnnXF0tQiVxpOH8C4Ck+WS0Z2O0l7m2d5oDIGkvpVq/70oCkjNH0Ha14LYYMd+3VyBoz73nMxvt2S9t9b+tvp9Pf4J720eBNoCkZSORCrKqUfRMlq36YLW9pxDSqxXiea1CKLukq8jaGe88OzCd6d9oX4f/2nedr+ngr92/4H1XDgU+qkbS9kiv/P3W9hiDOy5HCrRh2jq9MEOSQghIyB9Ypuzw1StXuUQzl11NSCFJi83s2Vf+wg6A5HJctkGfWqfAlb/fgpm9Milw3kBCWOIpFURcu2GdLVGG+FgVbrvhhhstQ3khAZBcmYsg6PXHhQIBkHxcZvJKG0e7gSQ0sJDxCu2EsFEyV0l4oiggyWtnhsJe+Qs70EiutCX9Se7vxTeefZKpG4z97BT4UEBCc2TFkqVK4hplJihBQHmEwLQVLLeAApeKAgGQXCrKf9Lf2+7w35aEIluW5CL8JSSuASL+FMBPOlGD8QcUCCgQUOCTRIEPDSSYtyg/QF0bX/7gfM4l/yQRORhrQIGAAgEFPs4U+NBA8nEmSjC2gAIBBQIKBBRoPwUCIGk/rYI7AwoEFAgoEFCgFQoEQBIsi4ACAQUCCgQU+EgUCIDkI5EveDigQBSNjMUAACAASURBVECBgAIBBQIgCdZAQIGAAgEFAgp8JAoEQNKMfFd+AuVHWg3BwwEFAgoEFPgQFAiA5GMAJOdTPfh87m3veroYbbb33RfyvrbG0db3F7IvQVsBBa4kCgRAcpkASXvOd2jt3AsqCZwPgzufe9u7kC9Gmy3f3R76tLe/Z7uvrXG09f1HfX/wfECBK5UCH2sgaWmoajlJbZe9b/lE+OGqbR8U1J5FAXNq7xkMZwOStt7z12DCbfXho37fcgwXg6kH51h81FkKnv+kUuBjBCRnnuF+JQBJbW2tqxDAz8ViZBeD6V7qDXOhxgTNqcwQHx/fNKSLNQ+XmmbB+wMKXCwKXFFAUm+nwaKiQsy3Kspi48ziE9AOavUT3YxOnKBSp/+rrKywBh3t2CE+Wkzj9D08FV7dt+UJ7zwf0XgHR5fWt2j/w+ok4dJ1VVWVFRQUWH5+vgEqlZWVropyW+VmaMODEOfGx8bGNgHR2Rgh9dF4hvvDGecZeld9vZWWlhr3048OHTq49v3l38vfZ1Z8bnupcu49bfCbvrQ1Vt8i95eVlbl3RkdHu2c/6kU7iYmJ1rVrV9dUTk6O61daWpr7HBocO3bM0Ss9Pd29O7gCCgQUaE6BKwpIAAV3vpZ+duzKs9zsSuvVq5MNHJwkJhpCBb72F/+u1//t2X3cKsqrrH//TBWWTGj63gFJI3o40Gh82L/DogCS0MW9dS1UnKhmfOxMjehsiy0cSMrLy3W+yynLysqy4uJi279/v/Xu3ds6c1DYORglbRQWFuq0yuOWkpLSVHkZJugLacIMYZT+4j0AFkyRd5ztgsnTD9pJSEiwESNGWEZGRtPttEHBTvrXt2/f82bo9PnIkSOu/4BUly5dNI+9LCmJeWwJ56HXMl5Adtu2be5eCoReCKYOiFF0tE+fPg7QV61a5egzdepUS05Odpri4sWL3RiHDBli/fr1a1NzvFDaUsCsAgpcKRS4YoAEBllZFSmGW2SV5dH2wQfb7dSJepsydaDNuCbdCoryrbQwUcymXEyn1hKTOlhGt0Qx6Vpbu2a91dWZSt0PtW7dOtnJk2WSgqMtqUOcNQgMiovLBECRliSmWVJSY0WFZVYv1EpKjbUunRPFjM1KiiussKDWqmuqrKqqQow+RT/xltAhpnGuQ0BCP72pKhwwYFgw9XDGzoNI2EjB+/bts0OHDrnf48ePd4yedmC2XgOAqXfs2NExOp6D2QNAMHOYHNJzdna2vaMjkHv06OHOiEGKhiFyP20DAkjfI0eOdH3lb76rE4Fg6oASph768t5777mxcQLmwIED3b9LSkrcdxwjADMfN26ca4d++nYYt5fo0bgASIp7otUAkFu3bnU/3E/VaMB04sSJjknzbs64YSw8C1gwZhg5dFqzZk0TfQAd2qDfniaMAxpDb8AO8OG90IAfLgCV9qEv7UO/UaNG2bp16xyQQPt58+Y5EKW9119/3QHfoEGDbO7cuU1zePLkSfd+3g1N6c/5Bj9cKYwi6GdAgXNR4DIHEsxJkU4LqayutZysClu6ZK1VlEXZnj3ZFhWRYvNvmmLXzEm1FSvX2YHdlVZaXiDGEmW9+3azKZPH2+bN+2zTxu2WmpJuc64bbRldkm3Fe9ulacRY3359xBRibMuWrWJWKZaalmF79xy0QwePSQSOti5dE232rCmWkma2fete27zpsNXWVQlMym3EyCE2amxPy0hPc9oQpi93FLEYFEwWZgUT8hcSPUwUc0n4BSM6evSobdy40TZs2OAY7lVXXeUkZNpZv369AxI+h6EOHjzYMbrc3Fz3He8DFGD0MGAY7ZIlSywzM9MxRz6HUQIwmzdvdvfTBt/Rv7Vr1zqthvaRzIcPH+7uhyG+/fbbAt2TNmXKFPcMFwx1x44dDjhoGyChzd27d7tx0AfGxBjoA+8FwDCVweBHjx7t2uBz6IG285e//MX9BkwAjE2bNrl2PCD179/fgQXgw4FqM2bMcH3kHv6mHUBo7969Dji8JgZNASlAxYHtsKFqP8qWLVvq7quvrXP3Tp482WbNmmWPP/64A0r6cfXVVzdNE+N98803HWDcc889ri/0DaBFawMM58yZ48YX+FcChvtJpMBlDiSyo8svgXnqxMlyW7F0i6Tt9TZ92vW2ffshK8ivtdtuu0ZAkmAP/+55276pwAYP7WlTp421DskRYnRd7UR2rb2w8GWrqqyz2+6aJim9p73+2mY9f9hGjhhtKckp9uJLL9n8G+bbnr0HbfeewxYf19FSUrsKOJbbl790u40WYCyReeOddzbYsOEDbMbVUy0pOda6906w1E4hs5oHEhgRGgEMHebpL5gfDBlNoSWQIGnv2rXLmW1WrlzppGEYK4xx4cKFjlF169bNDh8+7P593XXXOWkdRskzMGcYNxI2TPq5555zTH6MjkGGmQMQ9AvQQJuAqV577bUOoGDOMGT8AIATjPXOO+90knprQMK9MHr6BjjSVy7MQgDJ9u3bBcxb7POf/7xj4O+//74DRIAIQOEZ79/o2bOnOxCN/sKYJ02a5H6/9tprjtHDnNGQAAq0A5j2888/r6Odb3DgiTaFFgGdb7zxRgegvBOgZZwAAHRkbDw/XeDAO//rv/5LbabZyOEjnNaGqYy5+fGPf+zeBajwnNcoAb1nnnnG9en+++939/Dds88+68YKrb/4xS8GQPJJ5KDBmB0FrhggOXKsyF59foWVlpnNv3G+mJnMQXuPSHIcZTNnJdjvH3nVqko72cQpI2zchDSLlDkKv2hVpdlfnnnH8k+V2LxbxotxdLdDB/TZX163qMgkAUEntbPPvv7A7fb400ssKzvP0lJ7WOf07lZVdkxMZZINGhJv7yxfZbt2H7Xrb5htI0frfHr5T+LiGiwqGnMGpKx35rGK8jLbLOaye8dOx3j8BWNC2scf0BJIYOCABNI1TBQmz/0w3jfeeMPZ6zFRrV692knDMFIYPeCzcvVKGyZJe+r0aRYpOx1M9bHHHrXhw4bbhPFjpYl1duYiWZ+cRrJz505nhpk9e7YDkFdff81pFOUiVHFhkSUlJtlXv/oVSd8J9vbSxXbyRK40uyk2TKYzLrQYGDQ/MGeAhPYxI9E+msmwYcOcprJnz05bKVMR7xkyeIi0RZkENY5yaSw1ArFevXo4Bv7UU09ZosY1ccpEa5BJcemSpda7Zx8HMvhNaB9NBUB67LHHXN+hJdeOHdsEIItt0uSJot9h69e3n2V0zXBtlJYVW98+/eXbkuaRmm5D9Qzf/fa3v3X9GztqtANoTHRoPT//+c+d1oc2AggDFvUR9U5je+bZBQruqLUHHrhf90tF1ZV9LNuZ7egjAOVNWwFvuZgU8I7K1nySHz344mL2/OPc9hUBJA1aM1k5xfbW6+tt984jNnf2zTI1HbTsrBy7ft50mzGzkz3y6EsWE9HFJk0daaPHdHTe8eoqs5O59bbwuTcEJGUybY0Vgx1ssXJrPPfcu7Zx3QEHCDClu++ebE/9eaXMWjnWvVt/G9B/hFXW5MgE1Nu6yM+8ePE7dvBQlt1y6zwbMrSTRaj9ln5hfPWVMhHt3LXTDu7b74DEmzqwryO5IvG3BBIkXhgwPo9FixY50w2mJzQVjjLGR8FzmFIAEI42xi8BKKxe8771l1Q9bcZU65jYyTG/Rx55RJpLpo0ZNVKMsruYdKI0EgFcI6OHccIsMfs8Kwm/R4/uLugg6+gxAWO0fe2BB+T76WDLpVkdkhbQT0wWpguTxQSG1sG78T3QF0w+aCl79uxx/8bHg5R/+PBBB35lAlcYd11DhPNTeO0nsUO8DRzUX5rPYhs/Yax+JllhfqG9++57NmzwMKehAJyAlzcBohkAPgAtNMk9meM0Gnxj3TN72uQpk907OAb61KlcGz1qrKNZcrJO8RSzj0+It9//7nd21fTpbkxoF2hs9HfBggXOJEn/Z86c6cAL4+rmzZsEqm9bx6SOTvNISAiZtj5Y9YGbM7Qs7zsJTFsXm11eWiD5sLlcF5sql7r9yxxIQj4SrqLiWtuxJcfelWkrI72vncgqkSkhymbNmWijx8XYq2+sspioTjI99RVjTXSMsbio1nZuO2SrV22x0pIGGzaiuwONfv07yW9yxN5btseqqsukZcwV80iyDZtO2E6ZzGqroyTJd7fIONnLJwxxPpJ1a7ZY1onjAq0pMp2E/CKthQvX1lQ7v0JBXn6z3BA0Cn5aht3CIDHDYKYCTGDG2PuHDh3qwALJHyYMc4RZY7pBWkYDQGPZf2i/03JGjJZvo1dfgWSsvfX2W9Iyaqxbl3T1ta91y+wmgDzi2geckKBpH0a8eOkS13ZDZISVSCOBSd58880CkgTbuXuXHZC2Vqd+DOo/wEntPE8fcfLTFxg676f/SO4wZqRzzGcNVqeIuT1Ok+icLnOQ5hLTXj5msCNHBUql1rlLmuZGdJ40wXqpr7k5Jx3gDeg7wJnDoBeADE15L++B6WOSwoQVHR0p/9gKp5mMGzfBxo4Z6wBu957dMr/ttvTOGa6faWnp1qtPb/fdK6+8ItPYKBukNjCdASS0xXsxLdJHTGWAWE1dtb0urfBY9lEb3H+wzZ4z2/lZ0OIef/RxZ1pkPr785S8Hpq0LxM3OnUAbAMkFIvMFbeayB5JQ4K2yRJQmUlJstnXLHsvPU2RWfYwYmEwSMlV1zTTbtz/bIiPixbCSrVNKtAsDLi4qt5079lveyVKrrYmyhMQIMYlMaQY9JY3X2MH9hWIIlTZ8RC9J29ImpMHs35drRw7lykRVa0mdomzc+BH6TmaVXEXoSLLu2bO7JXckZ+PMeQjlnYQur2SfLSObe3zUESYtQAJGjN8CxofJBcc8QIPECwOEIWPmgfnB0GGulTWVDlDTxJD79e7vzE05OdlyZufIbllnXdK7NgEJ0ja+FR/yCrM/IBArKMh3wJsY30FjTXZMOlp9KJXGclLvwfSWLJMXQIL25N7bqG0BSvSVtnHAMyZ8ILSdlpZiBcUh/0ue3oHpjTbI5eGdhUUFGmO88/ukd+lscQKx4oIS977UjqlNTnMPJPh/+Dc0AAR5b0pqR9efI0cOCWD6hHwwar+0rFRAu0d+tCI3H121SAALtBO0CEAdOkJjDyRoaGgytI9ZjXdUVFc4R3tcQqyNkk+tZ4+eWlsNAsFye+wPf3L0wD8F8ASmrQvDm64UIAm0z9PzfZkDSfOF6WQRcWuZvN3lmDmaQSPXxgTm/m70WXh27j7nK93n/930vH+FRwByVchHacwpcSasVk2vZ9poWwJJaxui5WcABdoFjLg1tbmpe60hl76s038h5GoQcDTvqAsAaPqM6LfwLJvQY+F5NJF6R7N7pKX43Bo1f8bV9vjwMYRyQGTVaurf6RDZ+ibTX+ge9M8odz+gE5qj1muJnX53Yxt6lrE2y+HQZ6yV0IZv3X4OaGCyQ8vh3wQlAOZoI4BObX2N06Bi42Nk2uokYUXv0H/4edav3eCewSeEJtbWXJ1JweCTlhRoOwfn0mok9PfcQPfJnNMrCkhCeeiNzCLEmZqYzekJ9szJLzjPXCKbMSXPpFqb9nCw4R0hRtT+hEPfZtuMNqIpmz3cMR/OQGmjNcnHf4b5q2ksMNNmV1ifGxlzWzZe366774z2WgETQupg+AIdNwfN/g4FIHDViwGHwMijer1F1Tdn7k2g1thGeLuhxk/ff76buTUG5WmLtueTIVtrFx8N/pLwPBHuI0qOCzDhx1+BpNrarmrfZ9AUIIeeMTESKiJCdA0X0nxLrdXK86bwM+8/c/9+GNe8n3dMm74CRftG9vG+64oBEhYY0iKmBGzw2PVbNyWESyxM3tmBhG8xi+BrwOyBWYQ2sf9jOsKPwHvOpxQHCw3tAjMVIbGYeTDBECmFlMsGCWc03A+jchJ5o8ZwPowo/JlKmWEOyGxzXP6H9LTO1qt/b5lwGjPSW2gr7WHEmMZKSorceGpqq5WbM8CZ2IrkS8GMBV3wJ0Qqxb91zUFAAuADNJQJcP+olzQvk9mpE1acW6BnoxQpluhoH5dE8mdII3GQE2Y+dDRpBUg+DK1cN1poeOE5IE009VqYv7exP+0REBzza0UDDH8vDJP1zNpm/IDZ2a72rg3uIwwbLRctiXUN0yNcm4u1GK49+fedq336R+QdbdAWfiv8YpgkfYmcsz3f3n7TD9rGD4Yvj0CLzO5dFfwRKkmDvFRaYsq12u5Mr126xJvceKGraZ5CYkqd8L2gqE4BOVtkth6sKLtEtXNmcEwzIAlro2kOWpbJ0PzXKPeooCDPlij4gvQBAmgwJ7c1b62tubM+dAV+cRkAyZmMP0TH5vICJiDyCAiHvemmm9wEYutnofoaTNj/fR0pFjsMms/YCNzHovcJgbSHFsDmWLFihYuMwkTBfSxk/BHYybGj047PhObftAMocNGG9xfAjHgvDmHyGwA+NhybmhBeHNN8jy2ei774Mh/0kdBd+k87fA7T5n3e3MKC5eds0i/2/KzDR23d+6stMTbeho5RoqJCg0nEKVNUUw1OIF20TXhvg1Qv6MM76lT/JUKA0CGxgzPf0J8qPZMrRnfokBIxq6rtauV10CeY36lTeRavnTx4SCjjvUYZ/3XVakc7HmZJOG+UHOG1NXWOPrW10kAULhevYABCirdt3mLHDx1pdL7nu7Dd/sMHit6pjffXyi8RbzHxcQrTjrKa+lqFd1e5+QFs6AfJpFz4KxgHn3F/jD5vUB98bo9fT+0FAMebAAHZxSrLlbgo2tSr//CVWFVDgH51qu1WXVahYA3VLhMYxsm/5PRW0ZJ+RCFNy6xGnTcuPouMaQ649Pmtt95qSuAkCdW/m/XGGvXj8mHQbl4a54x1z+f0h38TUcfaImgAfxLrGYZMiDJrkvuIHkSooR3uB8y4WJc+EITPmTPWohurxoRfieg4nvX10chfInmTd9Jf1iVr2tdl43OvafOZX7su3Fzf0S6fsZdYM6wrKgsQCk90XOf0VHH/WFPUuHxeNfLX1Smv6jm7/vrrFYjRRWtVa0L5YQ31Ue53YnK9xcQmuGjN40pe3rBuraLzJlrXbh0EMHWiEe8L1YyrrJTWE1GntcIei5BwA5+guoP2RoI0TAFPnUhTWVGnzzGRat3FNug79ae8SMmrj1mGcrSmir79+vUnj6IputDTjTG3R2ALrc8r+7pigITNQOb373//e/vmN7/pFjBAwkZgw/nEOjYUEhcbBqkZoPCFClnkEyZMcIsYyYfviZgiUY+oG6Kj0FDIGId533LLLU6CwxnOj2f0LBSyodnQbFieYROxQQgdZSOTiMcmIYyXpELCbXmGZ5EYubDN43wGOOgHG8mXUEHqIpkQ7Yh3syBhGkiYMBx/X7gmgL+kWtL+26+/aTVigINHj1Ay5VjXz/0HD6iETIHrI+10V9spqZ3U163uMyQ+Ir7Q9tKUrHfo4CE5w6lndkKbUvW8kjva/DvukLRXI6BVwIO0lG6SSMeNG20lAsADB/ZZmRzlUWLyNTW1LrclSWVqck+csmw5//FVVCqirbec1WWi/5aNm8QYTjhH9Zq1axwtxk4aL+BNt6zjWS73AwDpqUirRIHbSSUf5hzJcnRmPL16SYNUTgi+CgQM6AND76oIta4KZ44VCIX7iNCMWCfQmOf9xRzhVCckuqWmWFtWbVvWbLDiU0VWp+CMyLgYtZ9hI8aNsuM5xyxr72FJ6iViXrGK8kuzDhpvWSUBGT2tczfly5SU2669eyxRAQy9+/axhBQJH40+I7StSs3VH//4R7cOb7vtNidocMFg0WhZE2gCXMw7TBztkDUNk2Id++g1GDZ5RR5IGCshzISSAwJEo6FBsG9oh/ZZ5zBx6MF3rCvoCOjwm8/ZS+wB7v/Nb37jkkQBIdYwfqW77rrL7SX2BvTjfgCM/hBx6IUg9ip7j37TH/YMexX6E/UG/dnfJPKytu+9917H5HNP1mh+c5TfVaRADLOXXnrB7rv/q9pnPdT2Sdu964DWSbzWV7T1HhArza6f1kSDbdl6QBGbW+yW2+ZZ9x6JlpN7wvJyy1VKqJ/LL9u+/agLmunUMUPBO0Va79mumkVSshJa+xDAE6tQdEVrrtvogkMQXjIy4lTXr7crErvwhT/b0eM5NkVAcvWMq53YCw2gMzSF/0DTT8p1xQHJww8/bN/+9rebgITFDrN9+eWXnSmJjQZTQmvBPEXEDVE5LGQ2AAsU5g+jh4EifaGB/N3f/Z1b0Ji5yOhmc/MeNjBtkK3OJoW5s3EAM95L+KevSAuYfeMb33AZ14AJ5goY5R/+8AcbK4bOpkc74Rn/brLUYey0723utMuGBYR4NwzFa0Bsxk9/+tNuTF569Yu1Qf4cFvQSAUlpQZEkfJVxUa5EmSKYli1bJuafY0UFhdqg0UowHGrjJ06yhx/+nZNEQ9JTvZhJX2XKj3KSMiVEfMkXNsb8Oz/rkhbXC3izjx23gUMGK49kjiTII7borTesNDdPYw4xqWuvnWupYio7duxy9O6kKKxtu7bZNCU3pndOt6OSOgsLi3Xfp8Q8PnBjHzBioMUJzLYqoRMt6sSJbJty1XTrLDPdITGuw7v3KQIt0zGoSWKIg5XkeOTIYdVdWyMTXmdJrSU2QObISdOmWreevUI+nkZzGNImIAIdmFvvH0FjRICA+TUDZTHz2rwK++3P/seOKfE1rlaaYpxqr/Xsavd/40F75e3XbfsHEjgEnnGiXYdYMY8RQy1XJrtRWkeDla+UpzyWN5cttoEjhtn0ubMso7eSURt9SejhVVp75Pywbj/zmc80AQm0gMl/8MEHLoKNNU1I+HTlvvj1SRg70XD0GwGFNtDWiZZj7bGm5s+f73JuYNAvvviiY24kswIMrP9f/epXbn3yDkCBNQpdEHwAFdYdIEsCKADOOka44gK0WDO8g6KWvB/QwxRMVQNoTQQcNPVRd+wN1hMVCAAStB32L5UUEMCYG+aWqgXsX5Om8N57B0SHHTKFVltsVJpym5bY//2//0dzlmbrNq7VuBZZn54yXylcf7jSAAb0G6USShG2fOkaJcOusL/9uweVq5Rm6zdsEk2P2Oy5VEtIshdffs0G9u2laMGe9v6qjXbosMLilYdlDVU2ZdoYVc8YKHCpsl/84mfSuqXFZaRb/yEdbfKkUZYuQFm39n2XzDte4eaEy0dJi2dMv/zlL50VgqRi6PlJua44IHnooYeagISFzKZjAlmEAAegwMIlUY5FzMKEKbNBWMCoxV5bQO1nIT/99NNKSLzbbchotfnmm2/Ye6tW2tfv/5o2cF8HUrsFHgNkfgFsfvSjH7nFz2aHCZOMRvs//elPXQkNwILNRX/Y2NwD88efgPRMWQ00LJ5nk7LpSfD7+te/7iQ4Sm9gukNy/J2S59Ba2NBIgeRWsFFhLOFAwlh91g1AUpxfYP3F2MYoX6JC9Ni4br1yb1TjKiuUjU3462fvuEulZR52zMZpXgekeR066BgrfZw0YaID5TViaGhSN955q4tc2qOs/R3bdjrGOn/eDdqEh8U0llq6kv5gCDAQSpBExcQ12er5fMGfF1hPQn317t0a7ya9o/+ggTIh1Ckz/yqNs4+Vqm/blPBYWVpumzZvEFMe5+hHVvzgfgMc/f+kmlh9BPDJ6hs0zBe9odfJ3BxLEc0AklHqOxqJ99FgWoMhA/YIBD5IAUnYl0lpCSSVChv/xfd/YlZeb8N7DXaZ8jsO7LZv/u237ef/+99mhdXyRaU5DeyAtIRrtM6OHDus0OloS0hSwcfKajtVXmi3fO52G3/1FEvOlKkGINH/WgIJGgkMlAsNGkaNZoCZB8CAScPEmTvWOGuFOUKoAQRYxzzzve99z61XAId5JSyZNUUdMcZM+RfWIXsAbeiHP/yhe85ryWhDvOMLX/iCEkPfdUIB6wGm/+///u9OkPJRbjBL1iiJsoAR/UKoYm8Qzg5tASoEqxdeeMGZq9A4mDOsA6wD2qefACkmZrQt9iF7qq460h599C31P0JMeaa0YvXhRw/ZV+/9fyTsJNpqabLvLH/f7vnyvfJnJlmMytghSFXJcqyiCvazn//YvvXtB2zEqDRVpciyd5dLk9M4MtTnXcozGjdmiHhFgz315PPKYRooMMqQYLLLxowdYtdfN0MaTK396n9/Yd/81teUBtBJZZca5QC9ZMvmdUrmXWijVGbnM7ff7ky2CKWMD6GPfe+PJvgkgMkVCSQPPvigY1gsbhY9AIEUhpQG80Z1RoUHaDALwazZREjZbCQmG5UaIAF0KNHBxmEBR4kJoAWseH+Vfe2++62vGParSmCDWQ4ZOMi94wc/+IFb+Eh6vIM2YUI/+9nP7Gtf+5qTeL1GgsbBpgEsyPJGykTLYZMBGPSThQfg3XfffW7Ts+m8avzkk0+6MiQeOPDZwPh8JdtwZ6YHkuWL3rZ85b30lv9ihEql4Hx/ceELNm7kMPka6hxzipCqftftd9kfH/2j2+wsejYxDMgDyUQl+CUnJ8n0tFa5GVFnAAm0mj//RjssjWPlynedgx8JbamKInbsoI0tP0xe/klL6ZQis8Y4WyDAJkESBnLsaJblFxXaPEme+DU6paYof+ewM0dUyOQzeuRwlwjYu08/p00CJP31LFLeE2KKvSUxo5XtFN0AGjQ1wrQTJBGnZ3a1jkpAdGVrGp391fJlsBZgssyPBxKYKuNnPbUEkurcUvvZ//cTU21hGz1ghIIM8m39lg32DQHJL3/93xZVVu/mBQ2rXH6aIerzm6+94fxr0QLeKNnWK+Lq7Fvf/T82eNJIi0+B04U89uFAAqNFqvWmLQSRV1991fWXcTFfMGa0CUCQ9c0eABRZZ5hQPPh85zvfcc96IEFwYo888cQTTtjxQMIeQID6/ve/74CEd9EGNEAwYz+gJbOf6AP7Be0JMMM34isy8y7uYb0CRgAbbWM6NQAAIABJREFUWgrVD1j37Cno/ZLq2X3pS19yZmS0FYAfjdsHGqABASSMByZ8B2ZUByRvak+YmPt05RYlC0h+rRI+AEknaSQb3Z564IGvCRx1rg1uS5lQy1XibveOamkTgMD9NnJUZytWGytX7LPX3lgkDTLRaeOTJw7WOsx1tfjmzL5RWlhvmVQrpHEkyj9jdmBPvT3+5EP29W9+UcnMHU1ykTQPzjiqt3eWLbL3Vn5gE8aNlzClMkFafB5IWI+MAdD9pFyXAZC0j9RsBjYTqiOMDgYAI4Eh8x0aAKYkJDdsldiHYfJIc5gEkLSQlLEZs1EwL2GLZSGzkQAAV+zv6BGn3ewRQ51zzSxlXE+UHXaXa3egsrvZANRkuvXWW107bHLaQPWn/b//+7934MRmh+EjESLNs4nZmIAe7wVYACJAjrF4Z6iXLNnwjBNQo++oyyxQ3g/4tBbhI7ejC7HduWWbbdqw0eq16ocMGqDy+In28osqhZLZ3apraxy9MDvdcvNN9syCv6hO1WSXuHjw4D79HBLtrnZ9jcVprX4jbbLRZ336Oss/WeAc5Yf2HxZ9Y8QoJobqfu3e4bLIR8nOv3LlKh0iFm8Z8occVWGzHJmo0lI62trVa2zCpMnOh5CrzH+izG657TPyPcgRLXv4gd175SBdY9kCvv7yKWxcv8mGjxzhNmShEhtzjme75EocsjC3oUMEkpJoAUCk8ggNPlO+k/4yRaQoWg3p1AOtl7RhmK7yb2PYtE+oRCMLD33m/sq8MvvNz39lHaMSbUS/IY4hbtm+2R785jfszbfftAOb9+LCdUw1VmB4o7Sz1195XTQ6Jdrp8K1qs3wrsQe/+zfWbXgvAWbIR+KBpFr9oHYYgMDaY5yeCRGsgXDBuAAm1h8CBX1nzVGFmHXri0YyHsrpAEa0B+NnbaHloAGwP6AFQIw5jD0CqP7TP/2Tox9mLN6Nj4Oy+awzwIDP0O7ZazjbP/e5zzmtkL2F0EMb7Es0ZsxbfAYIAEq810X5qe/sh7/5m79xQMjY+N4X8ESgA4gYFz4G7mc/xsckax3ukma6V0xaCcUdOouBL7EHv/GABI10+UG2SKtdJ//m56VlxEsIrJXgosCAPSclLO62xYuW2azZFEsdbz17ZQjoSu1Pjz0tH0q1ff7ur9iEiYkCEgIelsnkVuuSVjkob/DgXtZ/oLSTAzLzvfioffneW+Qb0flAxHZQiVx+sD9JACPXiYAcV/5H6wUBgIKgCEqBaat9fP2vfhcbCKaBVuEjTJDKYbCACZKOP3mPxUvorj/bAqmRTcSGgblzsdmQBHmGHzYd7R6UzZ0ijsWKNcyUlI4dnqigWi2UDIkpbDSYLFIZm5HNTrtII2xsfC1oDTAd+uaLC/J+mBibkwUH82XTIZXBiPgcKZLn+J7NC5jwDJvQR6Nh5oIR+GivcAexB5JCMel9e/a6MXRRmXs27A5tOiKqiFyhxEeaaDZy1HAB2ObQoVKJHZ32UCCTGO0zLvwpAA9X91495X8YqGrKuU7yxDdA2G+mnM8UMSyUtJ6cmCwnvopiHj7ksstTRa/DcvLv27/HqhW9tE2mmFlzrnVMo0aRULU6NwbTFVK6yl9akcZ96MB+539JUh2ugoJi69VXh3xJ08lT+zs3bW0yV7KBJ02ZZjWUsJcU7OggIOma2cN66JkkaUHhSZTO9KfxY6MPv/jcR8qFayTMV01Jpb3/7iqLjZCTXUcMVKmyQbbMZ1dLSDmmAITDO/dbPmHQRKlJWp48bbI0qp3yfeiUS4mvEWKWxTpyYMb1M61Dekf5ckMh0H7OEEDQDJDi+QzmzxrEfMnahLnTD1/tAJCAYfEdkj4Ag3TvnboII+wTmDVrj3kEABCamDPaYi0w37zHm339gWesKfqAluHL86Cp4q/gHWgLCDEIAtCMd2HOYi85ejWe7wLIo0UCbAhbaCys6X/8x390/WK8fMbFXvWCIe0BMuwnNLSM9B6qKFGmQ+wOK+DjlOqAJ0gIKnTg0L17gsZ+XE744wIESgjFaD3Waj6qteZy9Y4srdUcgUO6QLG/NNieLppr9eq10liqJFzOsB5yo0mm0n4/JpPzYfkO4xV9F6FqGb1l6tIZR3niE9s+UP2+0aq3l+A03npFD7JHn31mgSwUQxyoQlPWFWZrzN7QHUGT35+U64rRSPyBUTBvL00CFCxENgVSjI/OCk8UYuP5cEQm24VhahP4EEfa8uG8bAaq4HKfz3dMUNs+XyVGzJF3slF5J5vDm4OQ8vmcBeRPH/ThwCwmzxB4LwDiQlW12bx5DhBhIbKpubAb+7Lq3O8PhsJc4B3vLRcpkUCeeVYr1BcmG6pSjFOTkE79rbGHaADtYppKpvA5tIKGhAajGRG6CjgRTkvoboLENUw4tfIJ1Eu9V03eRgZIqHUo7JcDw/w5LHXkNKhwY5bAuVygdlgAM236TOs3QJEzMn0RkhmPlA5zVWtyY6jCboV8OhUaB8fwxqi90GFhuWLgB3bua3T+56gw5xjVFxujjZ/ggB76MPg4Fah0uQ1RYixheQAt80bOFpYZ/nmdstqrFBYKUMRGKkxUIIw/J0FRZFw1Cv8t03vpH1Fi5MPUiG4kZQKyDYr/rdU44hTNFdFKwiLPsWagdXhiKXPsw3n5DubuQ8L5HPr68HYPMowPGrA/mF//Qz/xW4SbQFl3fM8690UxaYd7uBetwBfJRFPDX4G2BKOnLzzv1zR9gbHym73hw9Z5HlDwZ/PwLsxlMF3GQD/Dy/X4NgFGrAiAnauULRAvr9QRy+WhXKu42Gjlj8iMpXVdo/jcOtVCoz4c2ijiSG2NnPsVhAX70hTsb4WdK6QXZbBC4bxc8fEK8dUwOHVVKVJWVKJnqmqkBan9JNZ6qCwT4BifoH2ve1XnQe+TcKC9vlNCY7/eoZI89J3xAfwEPAD47F0fEPNJAJPLDkjYfCyYekmrznXWmFEcsgmIcTXOSvuyUrGRn+YmPlLHTyz2cxa1z8toGf7p7ztb0hvMDakOjYGqsuPGjpPko3BVMTPHHMOS3lw/FEXUlJgXlicDICGl0RYbEXMEmof3g/i2wpkBn2Fnp1yHv1orY+I3fGuLubVxtUyY86DgwZi/oVkINPzpkK1vlSqF+6KRHNVPnfJMUPkHDRkmbaGjNr7qoYXNTei9LWeV3A2ZmCThZ2Ufsz3bd7tnYDL8dErt7HJfTl9nloE529ydDUhOr41QeRdo6tqAzGH9DXHSsFf7uQ6/hyGFrYEzqnw2Pt5yXi8V44FpYp7Cee4DMvzxwm3NdXifWR8IP/gvAAbWMe14K8G59ln4vDgflzLbIanLVA/FKbir9f0fXsmhBRV5sGWZn8agh/CpPHv7YVU1mk17o8+rMY8HsPUndp5t7V2q+b2Y773sgATVEXTHzFJf02DJYjodlPEc5ZLPQkAC82za4OekzmkgQfrB5EASnUtklDmluqK6KVMXRtkWkHjTEa9EOqmuVTKipNIaMcwYSfhxJOFJYiL/ASYUkoFC17mAxEuZnmmHm1paG57vZ3uAhPdCz5YlWHgHC96X/vDvCacBkib+EaRVr6ajMQF80MsHAJxtw0Cveol7zCkahjMjyRcSKs+ukiktBufLW/iPQ1FXoYx/NKAGaQOOieh5NCpMYuHvdqdphnEL+IYXPVq+qz1A0pImzZkc354uSeOBEEHIXY2hx81p0zr7u1yAxNPaJ/C2NPu1lxGdqx1HmpYCVmPD4abFpn2je5nTUMkT/gtdzZNN29Oz1kocna4u3jKx/WyCass14MfiPw+fywBI2jMvF+meWqmqSENbtmyy3dt2OWfrCOU1pMgO7ye3PWYJt821mWHmMOr9srvu3rlLCXpjQjZlSbKHDyiZMC8Uo5+u5DbP+M+2sZ1GE1Y2Y/v20AFWrvy6TF0JyR1srMJOM2UOiFZmObkQjUFDLtM6tAFCoOLaIYInrK4U3/v7Q9LwufUuX0KE7RXOQP3UALb+REPs24AC70ZCxM6NyQItIVzaDLffY+JAXcevRJACF7ZtPmeOiODxiXwtN9RphnH2ygUt57FlpbAQswi/zoQef0eI0bQfSNq3fM/v/SHYCj3TOqNrnx7dvr4FdwUUuHwocFlqJNjIcaS9+tzLSuwaYhPlWExTmXFqNHHQUrlCQYnbJgmNBDjs9mRDo3WQVIfzuo/C7wCSw8qNgJnyHFE/1994g/WW8w0A2b99j8qEVzlnX1fZgPmsQNI2ajkMPkWOSteOzDnZYqAFKgvimIRswf30+bqNOidevo1E2ekzM7rZ+s3rbcpUnbfer69VyeBPW1zYel0dL9lf8xTRkyUbcLQ8d75cPP2FMWMbJjwX53KXbl2ljaU0iyTyywa7OoEHB+RzwH7fQTZ1nKJEf+Wq/MgBmZKgBcEBvJfxkBRIBBiginaBHZcftA5/ZjugQLQOv33sP88SzunPbOdvDt/CNwQQQTvs99i8cejSHiYMAg4wS56W2r2+4ZlpczMUQHQhgCR8a4UX7vtwLDwAksuHVQU9uZwpcNkBSSj2XxEgtVX25MOPuhIZYxWCm6roo8K8Atug6KzSklIlrJUpK7WLCqeNcAl3K1a8Z8lJyc45jNll7ITx7tS8Xdt3yLxS6+o75Z/Ms9s/d6eKGfa1w1nHbNem7WL4NTZDERxEJRGOS2JZjQ6FwrFcJoAiDwTmSPQUmgfndMAwienftXenAyeiuyj9sfClhTYZIFH7JaUVdkzM28fmE8kir7U7KKpAYNIhLt5FtBD1wTj27dtrOYoyiZQXMUrvGDJ8mA0ZodwDaTrhly9P4cKCNVZMVpiu0BrIh3jb1W6ijpFKoQvg8LUQ4YTZjCNmoS3aBWGgtEWEDiBGP30tJkKnGSPno+NcpXwMYMcFEBHmTD4MsfK3KxkLQMQWjqYCnfjMlWWXgx5dKXSdCSQtN0YAJJczqwj6FlDg7BS4rIAERkLFWWcTl239id/93noqMmKsTs9LUYLZKSXZbdm0wWkL+5WZWqeQC6IjYIAwxMmTpipMVxVVlb09VLWecnKzrUIZ0n2lIXBi4TaFKd5x9+esz8B+ViKtZ83yFXY8O8udejdQzsC3Fy+xvbt2K+ywi3UVc+cI2LsVN79LIY5I4pnSfjg58JkFz9hXvvIVO5qlsh1inB0UNdJd5qwd+3ap7s7MxnBYquaelPZE9Mp6B0g1GtcBHcE7WPko1K4CDJDoE3VoFI7JzqozlZKW6nJZhkhrmK7wXyR7GD4SO5I/2gjx+WT4E9N/Kj9PIYrbXF7IDQoZ/s///IndetutrmjiHo0Fxk+pFwDh17/+tYsiIqx4hI7hPa6jdf/zxz8WDSc77e7g/gMONAnTBBDIJyA/gLGGAxp9BTT47L77vhoq5JhzXAlf7ztt6I7b71D4pICEENizeZhbWZMfRmsIN23R5PkFY7TFGtrSSE7rW+21sbf1xuD7gAJXIgUueyDprgSzMdIukjp2sl3yRyxfsti6yGSTd/KEq6MEI04V84W5zZo1x0nnu+QLgQEfUiFBQnGR+jkxcLUS4ubecJ1LWGtQZdo1y9+1vcpbmKGExUFDB9uit5c6rQPpvpMY/VMLnrb5N9wo8NpkyQpXHaes7Rglz8HEb1fdqeNHD7uQXZg0+SJpqsPUq3uvUGz95m1yxJeoCFyy6vKsc6VZqhQ2e0IgN//GecqT6KDM4j+7EiyEzlKyYshwla1XcEGtmH+/gTpqVuUXYNKYnviNycnnHpDxThZzmQBxqZIcq6VRzJSm8VNl13/vu99VZm66aLXURZT9wz/8gwtFBEjQYgCSoervPvXzV/qMBDJMWutUs4rsYrKdqff12muvOTq2BBLuISmQnJovffmLLjy4Wic1FhdJU5SG5I8UPn2WxOlwmXMBSwAkVyILCfocUAAF4MxQlEtKFx/+Swz/808+JabaoKzSwZYmLYEQ2V07tttIlf0AJErEuCbKuQ2QkNh19ey5LvFtp4Cki5gcJjBs/TiW8yS579qzz+5STa1e/fq4I2DXvrvcSf+YnXDqr9WJd8TiD5DGgEP6yT8/bTfPv0nlzg+rAJ+KQUpziJNGQrmHe++/z4ETZT4GiQlPmDzJImXKgRm+s2y502y6y89B1VA0mxvn3SizmI55lWmLvqGRvPPOu0osC8WbY1brqaSp3n37Y9xTmYZurtQHcfgkORHPf9sdtyube4gyiTfbQw8/ZHNV26lAGgQ5KPhH5l1/gzSS/3TJjGgLgBxazLe+9S0HdhTpA0iumXmNjRwzylX2/dGP/t2dX56iEiXHVHwRICY7HzosWLDAmbzQfHzSG0BGrDzOe0xg02dMc8mHhOcuWbzM1QyjFhg+lVgFHBBk0BR1o0iC0wE7F+agoUu6WIOXBxQIKOAocNkBifeRACg7t2yX+SjLMWMfVbV186ZQ6euKMouP66DKngP1d6IKDh6wwfIp1IoRIsGnSoPBR7Bj185Q+KtCdImlma5y7iSOkcF+cPdOgU2Jc0j3ky+hUBpEpOLW+ZtEuVXSciaMG2O1FVVO+8g7mS/HfoWtkvYAkGAmIleie/ceNkD9gDXWy7S2X1nlZJZXqD2S+wAhwCpRfaLuVY4CA4jaIiN4+tUzZIYbppLUx+xUXq7yK2LcmSB9VKCwh/w2hNr+6U9/clL+zFnXOG0Jxz/Z9WVycPNvorGGDR1mn1OxPHIA8L0AAIAhWeRkQXO5ir5i67yPsuZVClrgM+6vll8ILQlHPNnLmMQoq4GvBKc8ZfC5iNpylYQF0BQazBTYEY67TTWynn/+BdsvDQ9NifNFPJDwXLjjO7T3AiAJeFBAgY8LBS5bIHEn6ek8Bxgp1VU5kyJBAHD82BFlF9eqKJ6ilWRuwgnsivqJqSbJ9FOvcuFkOlOOHId21okcF+1FqGyCak51k2Mcf0OeGGFZUb7LjsVs1DFF53G7/ARltXKWRUS0zsDQKXM6s4P8kz27dtihvTqTRD6KvIJ8u0OmrUR9x4WPhH74BDb8KZzXQTkH+hGlUOMu8vHUipseUS2rHVu3uTYxA1H1Fm2I6DHKppNdi/ZA3aok3q3oKzQONAwiy3gP2tVaaWA7ZOo7ofGR2UtNsBs+dZ2LUPP1vzCFoUl4RznmKvpINFq8aBkhsHBlNgQOFRpXqqLEqKnl63j5M1LoDyZELkALcxkXhQ5jlTcDPQGSVTpQC1p/6ctfcloWNHR+L1eosKVRKwCSjwsTCcYRUCCiAg/wJb1OlzJwCXaKoqqhvhM1oeQDCU9SIpzXZ2+3ndl65h0tj27lIKjw9mj/9HGuygRozGwm23efDnPKlhmM3A/8HuMnThCzTGvKrA4vT+LJ2TIPokBM/ojyMojcapBfJE0mrsFDhziAIEO7Zd5IeH+dDE+CtTS1Qh1QtXHjBldypFTRYc4PNHqsCh32azaTIatl4xn2PkGOulY+d6Xxs9B9IVqHX/40PrQTD0b+xEmqAcTHh06b4/KlMABltCDaBHRi4hJcza1YgV2kT5K5pOsteHlAgYACF5oCEaeKlD5+KS+YmbuovKSwX/k4SoulKVRXyr4u5kZ5BDGlUCb7mV31WbS00MBhzSq9QbKhKzKlyz/SsnwITBMgCb+IGAsHEs9YCZ3FZ0AdKDKqk8i0l1+AEiu18hlQ0JEy65zP0ZwZNy/RgimM424rJf2T/Ej+B+efAE4h0NB4xeRh4JQhj5R/w1++wjBHn8PYyypLpbGVqT+hSsJoW+GZ9DwXysQP9YEoOFcShrdwxjr9ddmRp/M6zncZNGVxNz4YIbOgB360rTfeWqSqrJky311jGd0ElvWnx3O+7wruDygQUODypUBEdj4Gl0t5NQKJAKVeDvZKhcsW5Z0Q09aZ0TohrUGfO0ZInSox3Mj6UCJbRKO24gCEYnMUgSsu05naMmmpEmtkDOL76aS31soV1EdKw1F7IcBpZKhhwAZjdzK9mgovj+LuFxARKntUDmp8DF0UJjtEJqrYOM8s1e8wlYK+ez8BYNGEiY0g4t5DOROZvKiei2M/M7One0+1zFscOEWiYloXZfhTYoS+u/pPjf0XE2/tapDpjhIuR9VmhQrpASDJMuMR1ZWow5dOVy06U4PzmkvINBW6wj9r0mygB/c00pv5AEgef+pJhQH3t5tu/oxqkHG2+4eJy7qUazN4d0CBgALtocBlBSQNkuyrxezydb5ykXIwYlTJs7pOlVHFo2LEoDlXo0r1sfCBRKsqaGyiym4rcRCmtVWRTJT17qKzskdPGKPCgElWJ2bLEauEp8LEcLhTayuCQ2ikXUTL96JXOq0C5zoZ60juVHiVjU1gFGdxnTpwlLPVRqvQeSPoeMLyXkpVkz3PYUwzdews5h6nwejMAmp5cSUJFDiZjQNxaqqoPVXnNBMc8fg+YMIEBFD2vVIOcCKfunXJ0BGtIxxYEJl1SgmVBBx0UYY/V6WOgaP2VLUy6KniGy9/kavgq7GUKlkT7YQgBfg7/o9lCptOUygvyY6V8scQfTZ16lSn3TAOKgJghiJwIbKxP/SFUGTa5znydTh+l6rAtfLlUFcMv1VIuwMEQ7XLCIbg9xMASZ8B9ulbbheQUL4f81kAJu3ZmME9AQWuJAoISFoUe/qr9/60aQsGW00kkhLjVuuYz8oTxc7gFSPnd+euna2Xssd3bNnhHNURQpc0JdFRwgRtZKXyGk7sPGwdu+icjfEjrOfAPko6LLOTObmWSW0tFRM+qGz2UWNDp7txzGuBnM+gFOGrPbr1cKcG5srxXK6w4jiZlSIEChNmTrakjI5WFxfSgpokc4oJStqnDMpBJRnmKD9kzvwbLFGOaRzeZNJTUgXzGX6D3v16SbNQsqQittAMYmSSwi/izobQ+LI4AjdP53+IAZNQOXjIYBs6Yawb6wH5Z0io7Dd0kPXWWeRlAood27Y78xfnheAM79o90yUl7leINKBGNj9Mu1NyoisB/trLLykkd6g7NyNLY+SgqHk6dCtbNAB4qgWygEWGQpbJD9mjTHs0vBoVXOTqIhDrIV8MZ4UUyWcEoPjzP7rp3SUqXkn14uycbFcpADB5SkfrNgMSIXKEK5sSXAEFAgp8nChwWQEJUUTVOhPz4PZd9sxjf7KK3CLr2qubZYhRxSaGTpxb9e5KS5b2UFepkh46uhRgwFn93soVlr3jkM7s7mxjJumzPt1dHsXuHXts5JChrpLwpl1bXa2trjpl79U3XrcclTDhZEByMLp0Uc6GGPheMe0IMUkimI5n5dhtX77Dug6Wiakj/ovTNn7ntxHMcfgTQHJMYb2z513vgIR6WuRk5OacEDBUqlxKifJdxlm1tAtqfnF1VV7MIYX8DuzX30n6BxQJlSbnPeVZqLlFHsbwyePd+RacHEhG/JDRI2zQgIHOib1UuSl9lKxJFWM0CjLi+/btpXOp39V4uuuYUg7gKVAdsA4uuuoVnWTXVxFZAAmaT5WAZpZCendrvJjoXJkUAWNXhT73ldN+qw7C6iANBX/TKdUgwxQ2WE70rVu2unvdGSeqftxZdBunhNEq0YyDlah5NvfauS5q68mn/uyA5OZb72g0bQU+ko8T8wjGElDAU+CyAhKCh2qLdACSqv4+9fDvnWlrxuyrrf/QAZZbcMo+WLzStq7d5EqMRFTpPOzIWhswfJDNEQN/74OVtue9LdZrQB+bee3VFhEbae+rZMe2jVsFJCMMLr5u90a7WbkPAMnCl150eRTkd/jQ1nffWWZ7deZFt85drWdGd3vrtUV2y1c/az3HDrCG1OimKLKm5SN/SqFCcQGS48pLmXPjfEtQyHGu6k7BUCsLS9zBOyRSTp6ihEWZ2LIVbpup9/dRxeGl7yx3WfoUXsxS7svs6bOc2YnkRPo4csoEmfCirFDAtGrFSuurjPzBSn4ESJapnMvMadMtJjbKVeit0Xkf1NV6++23XZFFgG7fvt0ylVUpL2SSvbTwJZ3fkeoy55M6JUvz6GbdBaDUIsNUWFZcqgTPYueIJ+nxoNoEONB2KBFDH7kfsCCwoJvAu7ymAne+TZg2Raa7BJcNjzZGrku06oo9/sRTylcZGABJwG8CCnzMKXB5AYlqZ9WL+R7ZussW/O4RS9HRrQBJv8H97fjJbFu16B3bIiAZPVjneKeq7HtirKVkptuwiaNt5cYPbNuSdTLxdFWNqunWQSXd132wzjZ+sMH6y+Fr1fW2/cheu/X2W61L92720isvOoc3hQ79WRtvv7lI0v9+653ZyzLTu9nLz73ogKT3aIXVpsrPgoM/zPFMpFmxSqoAJAelUcy+7lOuEvBWZX1j6uql7PRkmZZWCgTGjR9j4q52Qr4fNCASAjmKNF0OdHwMmIymTbnK5Y1sVkkWsvHRSHBz56nG2OpV74sOA22wNJI8mblWyPQ3a/rV7gRB8kw4AbH/gEEql7LUHRuM74M6YER7TRKQvC4NbKQO3uo7oK873wWT26lT+fbO0mWijz4TAGar7hgFHzlYi+q+/WU2xIfDvzHPYYbDfJWSkqqDigbLcRU6XyRFJsYKaVIHFBDAeSXQk+ceXfDnAEg+5gwkGF5AAShwSYEkFMV0+vwGnMf1+UV2VOXdX3tqgQokJtmUqya7c7vLFe6avf+4LX7tLZ1/qSTCeoXhZqTasLEjbNSk8bb/2CHb8OYqyz11wrr17qmihMOdo3rJm0uUmS7HsBzldR0ibd5N8yytqwoyLn3LMfAJKrFCnSmu96SRHNbZzYBIhhICly5aap/6zHXWc1hfi+gkjUSmrVAuh/wlhBg3Os0pC0+dKiKqBvUf5MAl62iWfCIVztFP0uAUObYpIw+j7S5TXabONqe+FhnrZLIfUqIiCZhcZXKOU7urnzQxzG0HBAjHZYbDBzJQ2hhMepcYOkUqo6IjVGCRs73rXL2wTes3uDL7mMRqFflGDsckZbYvXrrcRitLv6dybQxmAAAJyElEQVTAIE5ahijt+vmuyrlQBJNIMvwk+I+oFozmUVEWqp3Fsam99RzH2+7WEaMkc5JHEqNz1VM7d9Gph4OtQJrkkmVLXZ0xjlRFY3nkhacdkHz6tsC0FbCbgAIfZwpc0qit0Lnop4GkQrWxTu6RdL9hm9WeLLA8ZYj36dfbEhSmWibHeVJ0om1bt9ni5RyvK6u26KQ469G/t9XLvBOhc5Xzd2bJ/q9DpnRGdmLHRGenP7BrvzVUy+EdEWu18RHWU36E6Pg4O5Z91AEJjJzy85hijhw55KLCEmJ1iqIy3AvzC+S8T7HOPdKtOkJnWsu/nKBIsXxltqempzonv3PAKzJs3+59qo/VRSYgnTMiRz0O7/xTue6cEJL1+ssXongwVREuddn1lFpB+8BM5M98Pq6S9NTg4nM0lcTOOqdEPhiy9mmP6CkYPdoBJqRuChAgZBotgkoACYoOK5OPKUtVfR04aHwca0utMkrF9Jbvg9LuRHfFyxl+Qme+UFKmQJoJjnvMWLybkijUK6uqCJ2rzc/AgYNkRgsdrVuoPpFXk5Sa7IrDZ/bsYfkCJUCkUI74scqCT5GPaeHKt2zQsFEOSHr1E1iLVj4iOjT3H+etFYwtoMAnhwIRJwtxAV+aKzwbHO2hSjkkeYeOWPaeA5am0Ns8MUVMVDCdSlWXTU9OlZknz5UdqVUEFCqHcx7Lxp+YnGS1kujJbcDOTwhvQlK8GKuS9giFVbgw4cCErNIezuYokv4a0y9idA4IzD1aZT2cCUudi1IUV2W1DtFSH2rqldAnIIlLiHXO5k4qX8KBWjo9xAFBUX6xY9pEZOGIZjylKpGCFgHTT1Q2vAtvRuoXWPBZgpg5oceuRDxtyKxHKZha9Z3Q3ShlDMLEuThcC7Max/i6PBKZrqJlVuIYW3cJSKoFaDjrqY/FwVkkKnZSMUZ3UJWKS3ZMVkl6RXmhUXUQaBQU5rt6XPQFDQPzFtoHjvXD8pGUlRRZnd7DeKidhS+F0io1Ap9yaTuJCXEKo65x4FausGbqllHJmIRNEjffXPeu9ZEpbvZ111umAgO8RufG01g14NKsvOCtAQUCClxICkQUl1/qhMTTw4lQZnpdiST1AkUFidNUKoooUqYbGB82/RgxzjqZtdw54wKMejFLwIBaXDHSKCg74g5QEpDAYF0Zc30Go45qPIGvNYnYF0AmCkt3ug6RBe7yMsTA+d10CSHIZI+SM9+FwDYmRorfOu0CxtuU/Kj+o+nUNvY51K7yUQQSfMbvetfnUIKjoMKNh8TEEDY0z7z394V1xo3Xtauna5VTQq0ranEBOEkC107SDOgXwBMVJTClFm+jaa6Os+alPdFnd5E02UivQmqRlRS7JEra4awUN17R1s2HfmKjlNmv5QPo1Yuwrl3orPYI5V5zYIeALM0GyOTWKUW+IBIWG3MbLwSQhLfhKiA0r/ByIfdJ0FZAgYAC56BAhBjCJdNIWutXJLwzhAeNpxT57p1Z5M/dEH72kOP357r/LJRoIoEaA3z4G5NVqykPje2jnjjO7jPKz8bFwvvjuHVjJy4U12tlvH481M4Kn97wZMAz6OZpEzY+aOC76TLXuYd6ZNSrgVZ86SsC6LfvCt8LTOqiBFvQB+Dnpwn2zqz9+2GoEb4ieP6yWsgB2wko8AmiwGUHJNS7CtnOWwGOsITASzJHjnGG2BXOba+9XJK+/LVe2sjhvbTvfVpufgAJhw7SclrxeaDfebzyQMLZJKGr+fyez0mKf62hB+8JKBBQoH0UuKzLyHuzUYhxw4B8XakPI7+eSZCWylh4peFWa3OFNQFDDBWSPHtfwtv397X8zP99rnbaN5XN7zpXu6191/Iz//fpcmGe1Z+uRCAPk4ODpoOr9O9wQIgIszW1Nv7wHl/o8X8YmgXPBBQIKPDhKBAASRjdzgdIeOxCFPu4XICk5fL5MEASMl6dvgCa4AooEFDg40+ByxJIQmRvzSdyaRlTuFvhQgHJ5b7E/JhDOT9+XkK/vUbCX6e/D4Dkcp/ToH8BBS40BS5DILnQQwzaCygQUCCgQECBi0mBAEguJnWDtgMKBBQIKPAJoEAAJJ+ASb5ShpjZfbC9+OICm6IaY8EVUCCgwJVDgQBIrpy5+tj3FCAZMXyY/fuP/i0Ak4/9bAcD/DhRIACSj9NsXuFjAUiys/bYtdfeEoDJFT6XQfc/WRQIgOSTNd+X9Wg9kNDJAEwu66kKOhdQ4P9v7/xemgrDOP69cRO2ya4mooz9QGJCrCluLvBiigxyRiBBshsTy8JC6ML7bv07uqjLLrpbhcrIHE7ZoBENtkm0ZjcKCbW6aO8JY47aOnNnvNv5Hhici3Pe93k/z3v48P44O+cIUCTsENIQqBYJZSJNWhgICTQkQJE0RMQL2kWgViSUSbvIsx4SuBgBiuRi/Hh3Cwn8TSSUSQsBsygS0IgARaIRWBarnsC/REKZqGfJO0ignQQoknbSZl11CdQTyffyT8xem+duLvYhEpCQAEUiYVL0GlI9kQgmJydfMT8fpUz02kHYbmkJUCTSpkZ/gTUSiSBSKn1BNLpMmeive7DFEhOgSCROjt5C+x+RCCaHhx+xtLSKWOy53hCxvSQgJQHVIimXy5VvpP9QvstdffT09MBgMJz/vrmUTWZQshKoFcnp6TeYTL1KuOIFxdqDIpE1k4xLbwRUi+T4+Bj5fB7FYlFhNTQ0BKPRCKvVir6+PvT2/n7weZCAWgLVIhES6e934umzJ4jMTmNm5gbW1u4jEgmrLZbXkwAJaExAtUhKpRJSqRT29/cr89UlBAIBDAwMYHBwEDabDWazWeOQWXy3EjgTyZlEXr56gTvLq5X+9kaZzopEbirnPEiABOQi0JRIcrkcEokENjc3EQwG4fV64XK5KBK5cttx0QiRZD+klJGIkIj4O/m5uVtYX3+EyUm/cr6ycpujko7LLAPudgKqRXJ0dATxS6fTlcXOGBwOB/x+P4aHhymSbu8tGrdPrIPs7Oz+kYio7u1uEouL95B5t4tM5j0WFpZwcBDXOBIWTwIkoIZA0yLJZrPY3t5GoVDA2NgYpqamMDIyAovFoqZ+XksCDQmIkcjGxmN4PJcwPh6qjIZfN7yHF5AACbSPwIVEsrW1BTHNNTExgVAoVHnQPRRJ+3Knm5o+FT9jevo6rgYDePDwLnxXLuum7WwoCXQCgaZFkslklKktse1XiGR0dBR2u52L7Z2QdcZIAiRAAi0koFokYqeWmM5KJpPK1JbP51MW291uN9dIWpgYFkUCJEACnUJAtUjE+yN7e3uIx+PK+yThcBhOp1MZjYjtvyaTqVPazjhJgARIgARaQOAXv225UzDe4v0AAAAASUVORK5CYII=;" parent="vVSnk-1epBv8H9hLlx9P-23" vertex="1">
          <mxGeometry y="138" width="272" height="109" as="geometry" />
        </mxCell>
        <mxCell id="vVSnk-1epBv8H9hLlx9P-32" value="TestCase" style="swimlane;fontStyle=0;align=center;verticalAlign=top;childLayout=stackLayout;horizontal=1;startSize=26;horizontalStack=0;resizeParent=1;resizeLast=0;collapsible=1;marginBottom=0;rounded=0;shadow=0;strokeWidth=1;" parent="WIyWlLk6GJQsqaUBKTNV-1" vertex="1">
          <mxGeometry x="820" y="162" width="190" height="190" as="geometry">
            <mxRectangle x="230" y="140" width="160" height="26" as="alternateBounds" />
          </mxGeometry>
        </mxCell>
        <mxCell id="vVSnk-1epBv8H9hLlx9P-33" value="-adsf" style="text;align=left;verticalAlign=top;spacingLeft=4;spacingRight=4;overflow=hidden;rotatable=0;points=[[0,0.5],[1,0.5]];portConstraint=eastwest;" parent="vVSnk-1epBv8H9hLlx9P-32" vertex="1">
          <mxGeometry y="26" width="190" height="26" as="geometry" />
        </mxCell>
        <mxCell id="vVSnk-1epBv8H9hLlx9P-34" value="" style="line;html=1;strokeWidth=1;align=left;verticalAlign=middle;spacingTop=-1;spacingLeft=3;spacingRight=3;rotatable=0;labelPosition=right;points=[];portConstraint=eastwest;" parent="vVSnk-1epBv8H9hLlx9P-32" vertex="1">
          <mxGeometry y="52" width="190" height="8" as="geometry" />
        </mxCell>
        <mxCell id="vVSnk-1epBv8H9hLlx9P-35" value="+ TestCase( )" style="text;align=left;verticalAlign=top;spacingLeft=4;spacingRight=4;overflow=hidden;rotatable=0;points=[[0,0.5],[1,0.5]];portConstraint=eastwest;" parent="vVSnk-1epBv8H9hLlx9P-32" vertex="1">
          <mxGeometry y="60" width="190" height="30" as="geometry" />
        </mxCell>
        <mxCell id="vVSnk-1epBv8H9hLlx9P-38" value="+ ISALandingPage landingPage = launchLandingPage(); " style="text;align=left;verticalAlign=top;spacingLeft=4;spacingRight=4;overflow=hidden;rotatable=0;points=[[0,0.5],[1,0.5]];portConstraint=eastwest;" parent="vVSnk-1epBv8H9hLlx9P-32" vertex="1">
          <mxGeometry y="90" width="190" height="30" as="geometry" />
        </mxCell>
        <mxCell id="vVSnk-1epBv8H9hLlx9P-39" value="Extends" style="endArrow=block;endSize=16;endFill=0;html=1;rounded=0;exitX=0.5;exitY=0;exitDx=0;exitDy=0;entryX=0.5;entryY=1;entryDx=0;entryDy=0;" parent="WIyWlLk6GJQsqaUBKTNV-1" source="vVSnk-1epBv8H9hLlx9P-32" target="vVSnk-1epBv8H9hLlx9P-23" edge="1">
          <mxGeometry width="160" relative="1" as="geometry">
            <mxPoint x="930" y="322" as="sourcePoint" />
            <mxPoint x="1082" y="110" as="targetPoint" />
          </mxGeometry>
        </mxCell>
      </root>
    </mxGraphModel>
  </diagram>
</mxfile>
